<svg xmlns="http://www.w3.org/2000/svg" width="163" height="68" viewBox="0 0 163 68" fill="none"><path d="M103.389 49.0616C99.9929 49.0612 96.6737 48.0539 93.8505 46.167C91.0274 44.2802 88.8271 41.5986 87.528 38.4613C86.2288 35.324 85.8891 31.872 86.5519 28.5416C87.2146 25.2113 88.85 22.1522 91.2512 19.7513C93.6524 17.3504 96.7117 15.7154 100.042 15.0531C103.373 14.3908 106.825 14.731 109.962 16.0305C113.099 17.3301 115.78 19.5307 117.667 22.3541C119.553 25.1775 120.56 28.4969 120.56 31.8925C120.555 36.4448 118.744 40.8091 115.525 44.0278C112.305 47.2465 107.941 49.0569 103.389 49.0616ZM103.389 21.1641C101.266 21.1641 99.1916 21.7934 97.4269 22.9725C95.6622 24.1516 94.2869 25.8275 93.4747 27.7883C92.6625 29.7491 92.45 31.9067 92.864 33.9882C93.2781 36.0698 94.3001 37.9818 95.8008 39.4825C97.3015 40.9832 99.2136 42.0052 101.295 42.4192C103.377 42.8333 105.534 42.6208 107.495 41.8086C109.456 40.9964 111.132 39.621 112.311 37.8564C113.49 36.0917 114.119 34.0171 114.119 31.8947C114.119 29.0488 112.989 26.3194 110.976 24.307C108.964 22.2946 106.235 21.1641 103.389 21.1641Z" fill="white"></path><path d="M161.797 48.3351H155.354V31.8925C155.354 29.0466 154.224 26.3172 152.212 24.3048C150.199 22.2924 147.47 21.1618 144.624 21.1618C141.778 21.1618 139.048 22.2924 137.036 24.3048C135.024 26.3172 133.893 29.0466 133.893 31.8925V48.3351H127.45V31.8925C127.502 27.3726 129.333 23.0554 132.548 19.8774C135.762 16.6994 140.1 14.9171 144.62 14.9171C149.141 14.9171 153.478 16.6994 156.693 19.8774C159.907 23.0554 161.739 27.3726 161.791 31.8925L161.797 48.3351Z" fill="white"></path><path d="M119.371 57.7513H120.6V62.3722C120.012 62.8825 119.328 63.2708 118.588 63.5145C117.802 63.7831 116.976 63.9184 116.145 63.9147C115.004 63.9321 113.877 63.6573 112.872 63.1166C111.92 62.6054 111.128 61.841 110.583 60.9079C110.038 59.9431 109.751 58.8538 109.751 57.7457C109.751 56.6375 110.038 55.5482 110.583 54.5835C111.128 53.6502 111.92 52.8852 112.872 52.3725C113.884 51.8322 115.016 51.5583 116.163 51.5766C117.032 51.5695 117.896 51.721 118.711 52.0237C119.458 52.3004 120.129 52.7493 120.67 53.3338L119.871 54.1475C118.913 53.1997 117.694 52.7257 116.214 52.7257C115.287 52.7124 114.372 52.9363 113.556 53.3763C112.781 53.7945 112.136 54.4178 111.692 55.1781C111.249 55.9626 111.016 56.8482 111.016 57.749C111.016 58.6499 111.249 59.5355 111.692 60.3199C112.137 61.0763 112.778 61.6987 113.547 62.1218C114.359 62.5667 115.273 62.7932 116.198 62.779C117.328 62.8149 118.439 62.4874 119.368 61.8446L119.371 57.7513Z" fill="white"></path><path d="M126.433 55.0999C127.09 54.769 127.82 54.6083 128.555 54.6327V55.8287L128.262 55.8108C127.301 55.8108 126.552 56.1059 126.008 56.705C125.465 57.3042 125.192 58.1179 125.192 59.182V63.8253H123.963V54.702H125.141V56.4904C125.409 55.8995 125.863 55.4122 126.433 55.1021" fill="white"></path><path d="M132.038 63.3066C131.343 62.9159 130.768 62.3432 130.374 61.6501C129.977 60.9159 129.769 60.0941 129.769 59.2592C129.769 58.4242 129.977 57.6024 130.374 56.8682C130.766 56.1763 131.342 55.6067 132.038 55.2228C132.769 54.8353 133.584 54.6326 134.412 54.6326C135.239 54.6326 136.055 54.8353 136.786 55.2228C137.481 55.6058 138.055 56.1758 138.443 56.8682C138.834 57.6043 139.039 58.4253 139.039 59.2592C139.039 60.093 138.834 60.914 138.443 61.6501C138.053 62.3438 137.48 62.917 136.786 63.3066C136.056 63.6984 135.24 63.9034 134.412 63.9034C133.583 63.9034 132.768 63.6984 132.038 63.3066ZM136.153 62.3699C136.667 62.0757 137.086 61.6395 137.358 61.1135C137.644 60.537 137.792 59.9024 137.792 59.2592C137.792 58.6159 137.644 57.9813 137.358 57.4048C137.086 56.8788 136.667 56.4426 136.153 56.1484C135.618 55.8594 135.02 55.7081 134.412 55.7081C133.804 55.7081 133.205 55.8594 132.67 56.1484C132.155 56.4438 131.735 56.8795 131.459 57.4048C131.168 57.9796 131.016 58.6149 131.016 59.2592C131.016 59.9034 131.168 60.5387 131.459 61.1135C131.735 61.6388 132.155 62.0745 132.67 62.3699C133.205 62.6605 133.803 62.8127 134.412 62.8127C135.02 62.8127 135.619 62.6605 136.153 62.3699Z" fill="white"></path><path d="M149.765 54.7019V63.8163H148.587V62.1486C148.27 62.6962 147.805 63.1438 147.246 63.4408C146.648 63.7532 145.98 63.9108 145.305 63.899C144.113 63.899 143.174 63.5667 142.489 62.902C141.803 62.2373 141.459 61.2641 141.458 59.9823V54.7019H142.69V59.8661C142.69 60.8259 142.926 61.5539 143.398 62.0502C143.871 62.5465 144.547 62.7947 145.426 62.7947C146.384 62.7947 147.142 62.5033 147.697 61.9206C148.253 61.3378 148.531 60.5256 148.529 59.4838V54.7019H149.765Z" fill="white"></path><path d="M160.233 55.2183C160.919 55.599 161.483 56.1664 161.86 56.8548C162.248 57.6017 162.45 58.4309 162.45 59.2725C162.45 60.1141 162.248 60.9434 161.86 61.6903C161.485 62.3767 160.924 62.9437 160.242 63.3267C159.528 63.7203 158.725 63.9207 157.91 63.908C157.212 63.9196 156.522 63.7623 155.898 63.4497C155.299 63.1409 154.794 62.6779 154.434 62.1083V67.1786H153.22V54.7019H154.398V56.5038C154.753 55.919 155.259 55.4403 155.862 55.1177C156.496 54.7887 157.202 54.622 157.917 54.6326C158.728 54.6224 159.528 54.8226 160.239 55.2139M159.569 62.3677C160.088 62.0739 160.512 61.638 160.792 61.1113C161.095 60.5413 161.249 59.9036 161.239 59.258C161.25 58.6144 161.096 57.9787 160.792 57.4114C160.509 56.8872 160.085 56.4522 159.569 56.155C159.037 55.8598 158.44 55.7049 157.832 55.7049C157.224 55.7049 156.626 55.8598 156.095 56.155C155.583 56.454 155.163 56.8888 154.883 57.4114C154.579 57.9787 154.425 58.6144 154.436 59.258C154.426 59.9036 154.58 60.5413 154.883 61.1113C155.16 61.6365 155.58 62.0722 156.095 62.3677C156.628 62.658 157.225 62.8102 157.832 62.8102C158.439 62.8102 159.036 62.658 159.569 62.3677Z" fill="white"></path><path d="M7.80966 48.3351L21.6903 22.8676L35.5709 48.3351H42.9147L26.0027 17.2898C25.5828 16.5119 24.9603 15.8619 24.2011 15.409C23.4419 14.956 22.5743 14.7169 21.6903 14.7169C20.8062 14.7169 19.9386 14.956 19.1794 15.409C18.4202 15.8619 17.7977 16.5119 17.3779 17.2898L0.450195 48.3351H7.80966Z" fill="white"></path><path d="M80.8764 63.785L80.9792 63.68L49.1716 31.8724L80.9904 0.0536513L80.939 0H71.9319L44.231 27.7008C43.1274 28.8087 42.5078 30.3087 42.5078 31.8724C42.5078 33.4361 43.1274 34.9361 44.231 36.0439L71.9721 63.785H80.8764Z" fill="white"></path><path d="M42.5991 63.68L42.7041 63.785H51.6061L79.3472 36.0439C80.4519 34.9367 81.0723 33.4365 81.0723 31.8724C81.0723 30.3083 80.4519 28.8081 79.3472 27.7008L51.6464 0H42.6415L42.5879 0.0536513L74.4089 31.8724L42.5991 63.68Z" fill="white"></path></svg>